# WaveFront *.obj file (generated by Autodesk ATF)

mtllib environment.mtl

g Body2

v -0.050000 0.150000 0.000000
v -0.050000 -0.050000 0.000000
v -0.050000 -0.050000 0.100000
v -0.050000 0.150000 0.100000
v -0.250000 0.150000 0.000000
v -0.250000 0.150000 0.100000
v -0.250000 0.250000 0.000000
v -0.250000 0.250000 0.100000
v 0.250000 0.250000 0.000000
v 0.250000 0.250000 0.100000
v 0.250000 0.150000 0.000000
v 0.250000 0.150000 0.100000
v 0.150000 0.150000 0.000000
v 0.150000 0.150000 0.100000
v 0.150000 0.090711 0.000000
v 0.150000 0.090711 0.100000
v 0.250000 0.090711 0.000000
v 0.250000 0.090711 0.100000
v 0.250000 -0.040000 0.000000
v 0.250000 -0.040000 0.100000
v 0.150000 -0.040000 0.000000
v 0.150000 -0.040000 0.100000
v 0.150000 0.025355 0.000000
v 0.150000 0.025355 0.100000
v 0.080000 0.025355 0.000000
v 0.080000 0.025355 0.100000
v 0.080000 0.150000 0.000000
v 0.080000 0.150000 0.100000
v 0.020000 0.150000 0.000000
v 0.020000 0.150000 0.100000
v 0.020000 -0.050000 0.000000
v 0.020000 -0.050000 0.100000
v 0.006550 -0.050000 0.000000
v 0.006550 -0.050000 0.100000
v 0.006550 0.163450 0.000000
v 0.006550 0.163450 0.100000
v 0.093450 0.163450 0.000000
v 0.093450 0.163450 0.100000
v 0.093450 0.038806 0.000000
v 0.093450 0.038806 0.100000
v 0.163450 0.038806 0.000000
v 0.163450 0.038806 0.100000
v 0.163450 -0.026550 0.000000
v 0.163450 -0.026550 0.100000
v 0.236550 -0.026550 0.000000
v 0.236550 -0.026550 0.100000
v 0.236550 0.077260 0.000000
v 0.236550 0.077260 0.100000
v 0.136550 0.077260 0.000000
v 0.136550 0.077260 0.100000
v 0.136550 0.163450 0.000000
v 0.136550 0.163450 0.100000
v 0.236550 0.163450 0.000000
v 0.236550 0.163450 0.100000
v 0.236550 0.236550 0.000000
v 0.236550 0.236550 0.100000
v -0.236550 0.236550 0.000000
v -0.236550 0.236550 0.100000
v -0.236550 0.163450 0.000000
v -0.236550 0.163450 0.100000
v -0.036550 0.163450 0.000000
v -0.036550 0.163450 0.100000
v -0.036550 -0.050000 0.000000
v -0.036550 -0.050000 0.100000
vt -0.000000 0.000000 0.000000
vt 0.200000 0.000000 0.000000
vt -0.000000 0.100000 0.000000
vt 0.200000 0.100000 0.000000
vt 0.000000 0.000000 0.000000
vt 0.200000 0.000000 0.000000
vt 0.000000 0.100000 0.000000
vt 0.200000 0.100000 0.000000
vt -0.000000 0.000000 0.000000
vt 0.100000 0.000000 0.000000
vt -0.000000 0.100000 0.000000
vt 0.100000 0.100000 0.000000
vt -0.000000 0.000000 0.000000
vt 0.500000 0.000000 0.000000
vt -0.000000 0.100000 0.000000
vt 0.500000 0.100000 0.000000
vt 0.000000 0.000000 0.000000
vt 0.100000 0.000000 0.000000
vt 0.000000 0.100000 0.000000
vt 0.100000 0.100000 0.000000
vt 0.000000 0.000000 0.000000
vt 0.100000 0.000000 0.000000
vt 0.000000 0.100000 0.000000
vt 0.100000 0.100000 0.000000
vt 0.000000 0.000000 0.000000
vt 0.059289 0.000000 0.000000
vt 0.000000 0.100000 0.000000
vt 0.059289 0.100000 0.000000
vt -0.000000 0.000000 0.000000
vt 0.100000 0.000000 0.000000
vt -0.000000 0.100000 0.000000
vt 0.100000 0.100000 0.000000
vt 0.000000 0.000000 0.000000
vt 0.130711 0.000000 0.000000
vt 0.000000 0.100000 0.000000
vt 0.130711 0.100000 0.000000
vt 0.000000 0.000000 0.000000
vt 0.100000 0.000000 0.000000
vt 0.000000 0.100000 0.000000
vt 0.100000 0.100000 0.000000
vt -0.000000 0.000000 0.000000
vt 0.065355 0.000000 0.000000
vt -0.000000 0.100000 0.000000
vt 0.065355 0.100000 0.000000
vt 0.000000 0.000000 0.000000
vt 0.070000 0.000000 0.000000
vt 0.000000 0.100000 0.000000
vt 0.070000 0.100000 0.000000
vt -0.000000 0.000000 0.000000
vt 0.124645 0.000000 0.000000
vt -0.000000 0.100000 0.000000
vt 0.124645 0.100000 0.000000
vt 0.000000 0.000000 0.000000
vt 0.060000 0.000000 0.000000
vt 0.000000 0.100000 0.000000
vt 0.060000 0.100000 0.000000
vt 0.000000 0.000000 0.000000
vt 0.200000 0.000000 0.000000
vt 0.000000 0.100000 0.000000
vt 0.200000 0.100000 0.000000
vt 0.000000 0.000000 0.000000
vt 0.013450 0.000000 0.000000
vt 0.000000 0.100000 0.000000
vt 0.013450 0.100000 0.000000
vt 0.000000 0.000000 0.000000
vt 0.213450 0.000000 0.000000
vt 0.000000 0.100000 0.000000
vt 0.213450 0.100000 0.000000
vt 0.000000 0.000000 0.000000
vt 0.086901 0.000000 0.000000
vt 0.000000 0.100000 0.000000
vt 0.086901 0.100000 0.000000
vt 0.000000 0.000000 0.000000
vt 0.124645 0.000000 0.000000
vt 0.000000 0.100000 0.000000
vt 0.124645 0.100000 0.000000
vt 0.000000 0.000000 0.000000
vt 0.070000 0.000000 0.000000
vt 0.000000 0.100000 0.000000
vt 0.070000 0.100000 0.000000
vt 0.000000 0.000000 0.000000
vt 0.065355 0.000000 0.000000
vt 0.000000 0.100000 0.000000
vt 0.065355 0.100000 0.000000
vt 0.000000 0.000000 0.000000
vt 0.073099 0.000000 0.000000
vt -0.000000 0.100000 0.000000
vt 0.073099 0.100000 0.000000
vt 0.000000 0.000000 0.000000
vt 0.103810 0.000000 0.000000
vt 0.000000 0.100000 0.000000
vt 0.103810 0.100000 0.000000
vt 0.000000 0.000000 0.000000
vt 0.100000 0.000000 0.000000
vt 0.000000 0.100000 0.000000
vt 0.100000 0.100000 0.000000
vt 0.000000 0.000000 0.000000
vt 0.086190 0.000000 0.000000
vt 0.000000 0.100000 0.000000
vt 0.086190 0.100000 0.000000
vt 0.000000 0.000000 0.000000
vt 0.100000 0.000000 0.000000
vt -0.000000 0.100000 0.000000
vt 0.100000 0.100000 0.000000
vt 0.000000 0.000000 0.000000
vt 0.073099 0.000000 0.000000
vt -0.000000 0.100000 0.000000
vt 0.073099 0.100000 0.000000
vt 0.000000 0.000000 0.000000
vt 0.473099 0.000000 0.000000
vt 0.000000 0.100000 0.000000
vt 0.473099 0.100000 0.000000
vt 0.000000 0.000000 0.000000
vt 0.073099 0.000000 0.000000
vt 0.000000 0.100000 0.000000
vt 0.073099 0.100000 0.000000
vt 0.000000 0.000000 0.000000
vt 0.200000 0.000000 0.000000
vt 0.000000 0.100000 0.000000
vt 0.200000 0.100000 0.000000
vt 0.000000 0.000000 0.000000
vt 0.213450 0.000000 0.000000
vt 0.000000 0.100000 0.000000
vt 0.213450 0.100000 0.000000
vt 0.000000 0.000000 0.000000
vt 0.013450 0.000000 0.000000
vt 0.000000 0.100000 0.000000
vt 0.013450 0.100000 0.000000
vt -0.050000 -0.150000 0.000000
vt -0.036550 -0.150000 0.000000
vt -0.050000 0.050000 0.000000
vt -0.036550 0.063450 0.000000
vt -0.236550 0.063450 0.000000
vt -0.250000 0.050000 0.000000
vt -0.236550 0.136550 0.000000
vt -0.250000 0.150000 0.000000
vt 0.236550 0.136550 0.000000
vt 0.250000 0.150000 0.000000
vt 0.250000 0.050000 0.000000
vt 0.236550 0.063450 0.000000
vt 0.150000 0.050000 0.000000
vt 0.136550 0.063450 0.000000
vt 0.136550 -0.022740 0.000000
vt 0.150000 -0.009289 0.000000
vt 0.236550 -0.022740 0.000000
vt 0.250000 -0.009289 0.000000
vt 0.250000 -0.140000 0.000000
vt 0.236550 -0.126550 0.000000
vt 0.163450 -0.126550 0.000000
vt 0.163450 -0.061194 0.000000
vt 0.150000 -0.074645 0.000000
vt 0.150000 -0.140000 0.000000
vt 0.093450 -0.061194 0.000000
vt 0.080000 -0.074645 0.000000
vt 0.080000 0.050000 0.000000
vt 0.093450 0.063450 0.000000
vt 0.006550 0.063450 0.000000
vt 0.020000 0.050000 0.000000
vt 0.006550 -0.150000 0.000000
vt 0.020000 -0.150000 0.000000
vt 0.050000 -0.150000 0.000000
vt 0.050000 0.050000 0.000000
vt 0.036550 -0.150000 0.000000
vt 0.036550 0.063450 0.000000
vt 0.236550 0.063450 0.000000
vt 0.250000 0.050000 0.000000
vt 0.236550 0.136550 0.000000
vt 0.250000 0.150000 0.000000
vt -0.250000 0.150000 0.000000
vt -0.236550 0.136550 0.000000
vt -0.250000 0.050000 0.000000
vt -0.236550 0.063450 0.000000
vt -0.150000 0.050000 0.000000
vt -0.136550 0.063450 0.000000
vt -0.136550 -0.022740 0.000000
vt -0.150000 -0.009289 0.000000
vt -0.236550 -0.022740 0.000000
vt -0.250000 -0.009289 0.000000
vt -0.250000 -0.140000 0.000000
vt -0.236550 -0.126550 0.000000
vt -0.150000 -0.140000 0.000000
vt -0.163450 -0.126550 0.000000
vt -0.150000 -0.074645 0.000000
vt -0.163450 -0.061194 0.000000
vt -0.093450 -0.061194 0.000000
vt -0.080000 -0.074645 0.000000
vt -0.080000 0.050000 0.000000
vt -0.093450 0.063450 0.000000
vt -0.020000 0.050000 0.000000
vt -0.006550 0.063450 0.000000
vt -0.006550 -0.150000 0.000000
vt -0.020000 -0.150000 0.000000
vn -1.000000 0.000000 0.000000
vn -1.000000 0.000000 0.000000
vn -1.000000 0.000000 0.000000
vn -1.000000 0.000000 0.000000
vn 0.000000 -1.000000 0.000000
vn 0.000000 -1.000000 0.000000
vn 0.000000 -1.000000 0.000000
vn 0.000000 -1.000000 0.000000
vn -1.000000 0.000000 0.000000
vn -1.000000 0.000000 0.000000
vn -1.000000 0.000000 0.000000
vn -1.000000 0.000000 0.000000
vn 0.000000 1.000000 0.000000
vn 0.000000 1.000000 0.000000
vn 0.000000 1.000000 0.000000
vn 0.000000 1.000000 0.000000
vn 1.000000 0.000000 -0.000000
vn 1.000000 0.000000 -0.000000
vn 1.000000 0.000000 -0.000000
vn 1.000000 0.000000 -0.000000
vn 0.000000 -1.000000 0.000000
vn 0.000000 -1.000000 0.000000
vn 0.000000 -1.000000 0.000000
vn 0.000000 -1.000000 0.000000
vn 1.000000 0.000000 -0.000000
vn 1.000000 0.000000 -0.000000
vn 1.000000 0.000000 -0.000000
vn 1.000000 0.000000 -0.000000
vn 0.000000 1.000000 0.000000
vn 0.000000 1.000000 0.000000
vn 0.000000 1.000000 0.000000
vn 0.000000 1.000000 0.000000
vn 1.000000 0.000000 -0.000000
vn 1.000000 0.000000 -0.000000
vn 1.000000 0.000000 -0.000000
vn 1.000000 0.000000 -0.000000
vn 0.000000 -1.000000 0.000000
vn 0.000000 -1.000000 0.000000
vn 0.000000 -1.000000 0.000000
vn 0.000000 -1.000000 0.000000
vn -1.000000 0.000000 0.000000
vn -1.000000 0.000000 0.000000
vn -1.000000 0.000000 0.000000
vn -1.000000 0.000000 0.000000
vn 0.000000 -1.000000 0.000000
vn 0.000000 -1.000000 0.000000
vn 0.000000 -1.000000 0.000000
vn 0.000000 -1.000000 0.000000
vn -1.000000 0.000000 0.000000
vn -1.000000 0.000000 0.000000
vn -1.000000 0.000000 0.000000
vn -1.000000 0.000000 0.000000
vn 0.000000 -1.000000 0.000000
vn 0.000000 -1.000000 0.000000
vn 0.000000 -1.000000 0.000000
vn 0.000000 -1.000000 0.000000
vn 1.000000 0.000000 -0.000000
vn 1.000000 0.000000 -0.000000
vn 1.000000 0.000000 -0.000000
vn 1.000000 0.000000 -0.000000
vn 0.000000 -1.000000 0.000000
vn 0.000000 -1.000000 0.000000
vn 0.000000 -1.000000 0.000000
vn 0.000000 -1.000000 0.000000
vn -1.000000 0.000000 0.000000
vn -1.000000 0.000000 0.000000
vn -1.000000 0.000000 0.000000
vn -1.000000 0.000000 0.000000
vn 0.000000 1.000000 -0.000000
vn 0.000000 1.000000 -0.000000
vn 0.000000 1.000000 -0.000000
vn 0.000000 1.000000 -0.000000
vn 1.000000 0.000000 0.000000
vn 1.000000 0.000000 0.000000
vn 1.000000 0.000000 0.000000
vn 1.000000 0.000000 0.000000
vn 0.000000 1.000000 -0.000000
vn 0.000000 1.000000 -0.000000
vn 0.000000 1.000000 -0.000000
vn 0.000000 1.000000 -0.000000
vn 1.000000 0.000000 0.000000
vn 1.000000 0.000000 0.000000
vn 1.000000 0.000000 0.000000
vn 1.000000 0.000000 0.000000
vn 0.000000 1.000000 -0.000000
vn 0.000000 1.000000 -0.000000
vn 0.000000 1.000000 -0.000000
vn 0.000000 1.000000 -0.000000
vn -1.000000 0.000000 0.000000
vn -1.000000 0.000000 0.000000
vn -1.000000 0.000000 0.000000
vn -1.000000 0.000000 0.000000
vn 0.000000 -1.000000 0.000000
vn 0.000000 -1.000000 0.000000
vn 0.000000 -1.000000 0.000000
vn 0.000000 -1.000000 0.000000
vn -1.000000 0.000000 0.000000
vn -1.000000 0.000000 0.000000
vn -1.000000 0.000000 0.000000
vn -1.000000 0.000000 0.000000
vn 0.000000 1.000000 -0.000000
vn 0.000000 1.000000 -0.000000
vn 0.000000 1.000000 -0.000000
vn 0.000000 1.000000 -0.000000
vn -1.000000 0.000000 0.000000
vn -1.000000 0.000000 0.000000
vn -1.000000 0.000000 0.000000
vn -1.000000 0.000000 0.000000
vn 0.000000 -1.000000 0.000000
vn 0.000000 -1.000000 0.000000
vn 0.000000 -1.000000 0.000000
vn 0.000000 -1.000000 0.000000
vn 1.000000 0.000000 0.000000
vn 1.000000 0.000000 0.000000
vn 1.000000 0.000000 0.000000
vn 1.000000 0.000000 0.000000
vn 0.000000 1.000000 -0.000000
vn 0.000000 1.000000 -0.000000
vn 0.000000 1.000000 -0.000000
vn 0.000000 1.000000 -0.000000
vn 1.000000 0.000000 0.000000
vn 1.000000 0.000000 0.000000
vn 1.000000 0.000000 0.000000
vn 1.000000 0.000000 0.000000
vn 0.000000 -1.000000 0.000000
vn 0.000000 -1.000000 0.000000
vn 0.000000 -1.000000 0.000000
vn 0.000000 -1.000000 0.000000
vn 0.000000 0.000000 1.000000
vn 0.000000 0.000000 1.000000
vn 0.000000 0.000000 1.000000
vn 0.000000 0.000000 1.000000
vn 0.000000 0.000000 1.000000
vn 0.000000 0.000000 1.000000
vn 0.000000 0.000000 1.000000
vn 0.000000 0.000000 1.000000
vn 0.000000 0.000000 1.000000
vn 0.000000 0.000000 1.000000
vn 0.000000 0.000000 1.000000
vn 0.000000 0.000000 1.000000
vn 0.000000 0.000000 1.000000
vn 0.000000 0.000000 1.000000
vn 0.000000 0.000000 1.000000
vn 0.000000 0.000000 1.000000
vn 0.000000 0.000000 1.000000
vn 0.000000 0.000000 1.000000
vn 0.000000 0.000000 1.000000
vn 0.000000 0.000000 1.000000
vn 0.000000 0.000000 1.000000
vn 0.000000 0.000000 1.000000
vn 0.000000 0.000000 1.000000
vn 0.000000 0.000000 1.000000
vn 0.000000 0.000000 1.000000
vn 0.000000 0.000000 1.000000
vn 0.000000 0.000000 1.000000
vn 0.000000 0.000000 1.000000
vn 0.000000 0.000000 1.000000
vn 0.000000 0.000000 1.000000
vn 0.000000 0.000000 1.000000
vn 0.000000 0.000000 1.000000
vn -0.000000 0.000000 -1.000000
vn -0.000000 0.000000 -1.000000
vn -0.000000 0.000000 -1.000000
vn -0.000000 0.000000 -1.000000
vn -0.000000 0.000000 -1.000000
vn -0.000000 0.000000 -1.000000
vn -0.000000 0.000000 -1.000000
vn -0.000000 0.000000 -1.000000
vn -0.000000 0.000000 -1.000000
vn -0.000000 0.000000 -1.000000
vn -0.000000 0.000000 -1.000000
vn -0.000000 0.000000 -1.000000
vn -0.000000 0.000000 -1.000000
vn -0.000000 0.000000 -1.000000
vn -0.000000 0.000000 -1.000000
vn -0.000000 0.000000 -1.000000
vn -0.000000 0.000000 -1.000000
vn -0.000000 0.000000 -1.000000
vn -0.000000 0.000000 -1.000000
vn -0.000000 0.000000 -1.000000
vn -0.000000 0.000000 -1.000000
vn -0.000000 0.000000 -1.000000
vn -0.000000 0.000000 -1.000000
vn -0.000000 0.000000 -1.000000
vn -0.000000 0.000000 -1.000000
vn -0.000000 0.000000 -1.000000
vn -0.000000 0.000000 -1.000000
vn -0.000000 0.000000 -1.000000
vn -0.000000 0.000000 -1.000000
vn -0.000000 0.000000 -1.000000
vn -0.000000 0.000000 -1.000000
vn -0.000000 0.000000 -1.000000
usemtl Steel_-_Satin
f 1/1/1 2/2/2 4/3/3
f 4/3/3 2/2/2 3/4/4
f 5/5/5 1/6/6 6/7/7
f 6/7/7 1/6/6 4/8/8
f 7/9/9 5/10/10 8/11/11
f 8/11/11 5/10/10 6/12/12
f 9/13/13 7/14/14 10/15/15
f 10/15/15 7/14/14 8/16/16
f 11/17/17 9/18/18 12/19/19
f 12/19/19 9/18/18 10/20/20
f 13/21/21 11/22/22 14/23/23
f 14/23/23 11/22/22 12/24/24
f 15/25/25 13/26/26 16/27/27
f 16/27/27 13/26/26 14/28/28
f 17/29/29 15/30/30 18/31/31
f 18/31/31 15/30/30 16/32/32
f 19/33/33 17/34/34 20/35/35
f 20/35/35 17/34/34 18/36/36
f 21/37/37 19/38/38 22/39/39
f 22/39/39 19/38/38 20/40/40
f 23/41/41 21/42/42 24/43/43
f 24/43/43 21/42/42 22/44/44
f 25/45/45 23/46/46 26/47/47
f 26/47/47 23/46/46 24/48/48
f 27/49/49 25/50/50 28/51/51
f 28/51/51 25/50/50 26/52/52
f 29/53/53 27/54/54 30/55/55
f 30/55/55 27/54/54 28/56/56
f 31/57/57 29/58/58 32/59/59
f 32/59/59 29/58/58 30/60/60
f 33/61/61 31/62/62 34/63/63
f 34/63/63 31/62/62 32/64/64
f 35/65/65 33/66/66 36/67/67
f 36/67/67 33/66/66 34/68/68
f 37/69/69 35/70/70 38/71/71
f 38/71/71 35/70/70 36/72/72
f 39/73/73 37/74/74 40/75/75
f 40/75/75 37/74/74 38/76/76
f 41/77/77 39/78/78 42/79/79
f 42/79/79 39/78/78 40/80/80
f 43/81/81 41/82/82 44/83/83
f 44/83/83 41/82/82 42/84/84
f 45/85/85 43/86/86 46/87/87
f 46/87/87 43/86/86 44/88/88
f 47/89/89 45/90/90 48/91/91
f 48/91/91 45/90/90 46/92/92
f 49/93/93 47/94/94 50/95/95
f 50/95/95 47/94/94 48/96/96
f 51/97/97 49/98/98 52/99/99
f 52/99/99 49/98/98 50/100/100
f 53/101/101 51/102/102 54/103/103
f 54/103/103 51/102/102 52/104/104
f 55/105/105 53/106/106 56/107/107
f 56/107/107 53/106/106 54/108/108
f 57/109/109 55/110/110 58/111/111
f 58/111/111 55/110/110 56/112/112
f 59/113/113 57/114/114 60/115/115
f 60/115/115 57/114/114 58/116/116
f 61/117/117 59/118/118 62/119/119
f 62/119/119 59/118/118 60/120/120
f 63/121/121 61/122/122 64/123/123
f 64/123/123 61/122/122 62/124/124
f 2/125/125 63/126/126 3/127/127
f 3/127/127 63/126/126 64/128/128
f 3/129/129 64/130/130 4/131/131
f 4/131/131 64/130/130 62/132/132
f 4/131/131 62/132/132 60/133/133
f 4/131/131 60/133/133 6/134/134
f 6/134/134 60/133/133 58/135/135
f 6/134/134 58/135/135 8/136/136
f 8/136/136 58/135/135 56/137/137
f 8/136/136 56/137/137 10/138/138
f 10/138/138 56/137/137 12/139/139
f 12/139/139 56/137/137 54/140/140
f 12/139/139 54/140/140 14/141/141
f 14/141/141 54/140/140 52/142/142
f 14/141/141 52/142/142 50/143/143
f 14/141/141 50/143/143 16/144/144
f 16/144/144 50/143/143 48/145/145
f 16/144/144 48/145/145 18/146/146
f 18/146/146 48/145/145 20/147/147
f 20/147/147 48/145/145 46/148/148
f 20/147/147 46/148/148 44/149/149
f 42/150/150 24/151/151 44/149/149
f 44/149/149 24/151/151 22/152/152
f 44/149/149 22/152/152 20/147/147
f 42/150/150 40/153/153 24/151/151
f 24/151/151 40/153/153 26/154/154
f 26/154/154 40/153/153 28/155/155
f 28/155/155 40/153/153 38/156/156
f 28/155/155 38/156/156 36/157/157
f 28/155/155 36/157/157 30/158/158
f 30/158/158 36/157/157 34/159/159
f 30/158/158 34/159/159 32/160/160
f 2/161/161 1/162/162 63/163/163
f 63/163/163 1/162/162 61/164/164
f 61/164/164 1/162/162 59/165/165
f 59/165/165 1/162/162 5/166/166
f 59/165/165 5/166/166 57/167/167
f 57/167/167 5/166/166 7/168/168
f 57/167/167 7/168/168 9/169/169
f 57/167/167 9/169/169 55/170/170
f 55/170/170 9/169/169 11/171/171
f 55/170/170 11/171/171 53/172/172
f 53/172/172 11/171/171 13/173/173
f 53/172/172 13/173/173 51/174/174
f 51/174/174 13/173/173 49/175/175
f 49/175/175 13/173/173 15/176/176
f 49/175/175 15/176/176 47/177/177
f 47/177/177 15/176/176 17/178/178
f 47/177/177 17/178/178 19/179/179
f 47/177/177 19/179/179 45/180/180
f 45/180/180 19/179/179 21/181/181
f 45/180/180 21/181/181 43/182/182
f 43/182/182 21/181/181 23/183/183
f 43/182/182 23/183/183 41/184/184
f 41/184/184 23/183/183 39/185/185
f 39/185/185 23/183/183 25/186/186
f 39/185/185 25/186/186 27/187/187
f 39/185/185 27/187/187 37/188/188
f 37/188/188 27/187/187 29/189/189
f 37/188/188 29/189/189 35/190/190
f 35/190/190 29/189/189 33/191/191
f 33/191/191 29/189/189 31/192/192
# 64 vertices
# 192 texture params
# 192 normals
# 124 facets

# 1 groups
