# WaveFront *.obj file (generated by Autodesk ATF)

mtllib environment.mtl

g Body1

v 43.306766 -52.349121 -0.800000
v 40.968366 -52.349121 -0.800000
v 40.968366 -52.349121 0.000000
v 43.306766 -52.349121 0.000000
v 44.578777 -51.975000 -0.800000
v 44.578777 -51.975000 0.000000
v 45.957679 -51.975000 -0.800000
v 45.957679 -51.975000 0.000000
v 46.524205 -52.349121 -0.800000
v 46.524205 -52.349121 0.000000
v 47.336582 -52.349121 -0.800000
v 47.336582 -52.349121 0.000000
v 47.336582 -53.628174 -0.800000
v 47.336582 -53.628174 0.000000
v 48.678492 -53.628174 -0.800000
v 48.678492 -53.628174 0.000000
v 48.678492 -49.263287 -0.800000
v 48.678492 -49.263287 0.000000
v 47.336582 -49.263287 -0.800000
v 47.336582 -49.263287 0.000000
v 47.336582 -50.542339 -0.800000
v 47.336582 -50.542339 0.000000
v 46.524205 -50.542339 -0.800000
v 46.524205 -50.542339 0.000000
v 45.957679 -50.916460 -0.800000
v 45.957679 -50.916460 0.000000
v 44.578777 -50.916460 -0.800000
v 44.578777 -50.916460 0.000000
v 43.306766 -50.542339 -0.800000
v 43.306766 -50.542339 0.000000
v 40.968366 -50.542339 -0.800000
v 40.968366 -50.542339 0.000000
v 44.593178 -50.816460 -0.800000
v 43.321167 -50.442339 -0.800000
v 43.321167 -50.442339 0.000000
v 44.593178 -50.816460 0.000000
v 45.927640 -50.816460 -0.800000
v 45.927640 -50.816460 0.000000
v 46.494166 -50.442339 -0.800000
v 46.494166 -50.442339 0.000000
v 47.236582 -50.442339 -0.800000
v 47.236582 -50.442339 0.000000
v 47.236582 -49.163287 -0.800000
v 47.236582 -49.163287 0.000000
v 48.778492 -49.163287 -0.800000
v 48.778492 -49.163287 0.000000
v 48.778492 -53.728174 -0.800000
v 48.778492 -53.728174 0.000000
v 47.236582 -53.728174 -0.800000
v 47.236582 -53.728174 0.000000
v 47.236582 -52.449121 -0.800000
v 47.236582 -52.449121 0.000000
v 46.494166 -52.449121 -0.800000
v 46.494166 -52.449121 0.000000
v 45.927640 -52.075000 -0.800000
v 45.927640 -52.075000 0.000000
v 44.593178 -52.075000 -0.800000
v 44.593178 -52.075000 0.000000
v 43.321167 -52.449121 -0.800000
v 43.321167 -52.449121 0.000000
v 40.868366 -52.449121 -0.800000
v 40.868366 -52.449121 0.000000
v 40.868366 -50.442339 -0.800000
v 40.868366 -50.442339 0.000000
vt -0.000000 0.000000 0.000000
vt 2.338400 0.000000 0.000000
vt -0.000000 0.800000 0.000000
vt 2.338400 0.800000 0.000000
vt -0.000000 0.000000 0.000000
vt 1.325888 0.000000 0.000000
vt -0.000000 0.800000 0.000000
vt 1.325888 0.800000 0.000000
vt 0.000000 0.000000 0.000000
vt 1.378903 0.000000 0.000000
vt 0.000000 0.800000 0.000000
vt 1.378903 0.800000 0.000000
vt 0.000000 0.000000 0.000000
vt 0.678909 0.000000 0.000000
vt 0.000000 0.800000 0.000000
vt 0.678909 0.800000 0.000000
vt 0.000000 0.000000 0.000000
vt 0.812377 0.000000 0.000000
vt 0.000000 0.800000 0.000000
vt 0.812377 0.800000 0.000000
vt 0.000000 0.000000 0.000000
vt 1.279053 0.000000 0.000000
vt 0.000000 0.800000 0.000000
vt 1.279053 0.800000 0.000000
vt 0.000000 0.000000 0.000000
vt 1.341910 0.000000 0.000000
vt 0.000000 0.800000 0.000000
vt 1.341910 0.800000 0.000000
vt -0.000000 0.000000 0.000000
vt 4.364887 0.000000 0.000000
vt -0.000000 0.800000 0.000000
vt 4.364887 0.800000 0.000000
vt 0.000000 0.000000 0.000000
vt 1.341910 0.000000 0.000000
vt 0.000000 0.800000 0.000000
vt 1.341910 0.800000 0.000000
vt 0.000000 0.000000 0.000000
vt 1.279053 0.000000 0.000000
vt 0.000000 0.800000 0.000000
vt 1.279053 0.800000 0.000000
vt 0.000000 0.000000 0.000000
vt 0.812377 0.000000 0.000000
vt 0.000000 0.800000 0.000000
vt 0.812377 0.800000 0.000000
vt 0.000000 0.000000 0.000000
vt 0.678909 0.000000 0.000000
vt 0.000000 0.800000 0.000000
vt 0.678909 0.800000 0.000000
vt 0.000000 0.000000 0.000000
vt 1.378903 0.000000 0.000000
vt 0.000000 0.800000 0.000000
vt 1.378903 0.800000 0.000000
vt 0.000000 0.000000 0.000000
vt 1.325888 0.000000 0.000000
vt 0.000000 0.800000 0.000000
vt 1.325888 0.800000 0.000000
vt 0.000000 0.000000 0.000000
vt 2.338400 0.000000 0.000000
vt 0.000000 0.800000 0.000000
vt 2.338400 0.800000 0.000000
vt 0.000000 0.000000 0.000000
vt 1.806782 0.000000 0.000000
vt 0.000000 0.800000 0.000000
vt 1.806782 0.800000 0.000000
vt 0.000000 0.000000 0.000000
vt 1.325888 0.000000 0.000000
vt 0.000000 0.800000 0.000000
vt 1.325888 0.800000 0.000000
vt -0.000000 0.000000 0.000000
vt 1.334462 0.000000 0.000000
vt -0.000000 0.800000 0.000000
vt 1.334462 0.800000 0.000000
vt -0.000000 0.000000 0.000000
vt 0.678909 0.000000 0.000000
vt -0.000000 0.800000 0.000000
vt 0.678909 0.800000 0.000000
vt -0.000000 0.000000 0.000000
vt 0.742416 0.000000 0.000000
vt -0.000000 0.800000 0.000000
vt 0.742416 0.800000 0.000000
vt 0.000000 0.000000 0.000000
vt 1.279053 0.000000 0.000000
vt 0.000000 0.800000 0.000000
vt 1.279053 0.800000 0.000000
vt -0.000000 0.000000 0.000000
vt 1.541910 0.000000 0.000000
vt -0.000000 0.800000 0.000000
vt 1.541910 0.800000 0.000000
vt 0.000000 0.000000 0.000000
vt 4.564887 0.000000 0.000000
vt 0.000000 0.800000 0.000000
vt 4.564887 0.800000 0.000000
vt 0.000000 0.000000 0.000000
vt 1.541910 0.000000 0.000000
vt 0.000000 0.800000 0.000000
vt 1.541910 0.800000 0.000000
vt 0.000000 0.000000 0.000000
vt 1.279053 0.000000 0.000000
vt 0.000000 0.800000 0.000000
vt 1.279053 0.800000 0.000000
vt 0.000000 0.000000 0.000000
vt 0.742416 0.000000 0.000000
vt 0.000000 0.800000 0.000000
vt 0.742416 0.800000 0.000000
vt 0.000000 0.000000 0.000000
vt 0.678909 0.000000 0.000000
vt 0.000000 0.800000 0.000000
vt 0.678909 0.800000 0.000000
vt 0.000000 0.000000 0.000000
vt 1.334462 0.000000 0.000000
vt 0.000000 0.800000 0.000000
vt 1.334462 0.800000 0.000000
vt 0.000000 0.000000 0.000000
vt 1.325888 0.000000 0.000000
vt 0.000000 0.800000 0.000000
vt 1.325888 0.800000 0.000000
vt 0.000000 0.000000 0.000000
vt 2.452801 0.000000 0.000000
vt 0.000000 0.800000 0.000000
vt 2.452801 0.800000 0.000000
vt 0.000000 0.000000 0.000000
vt 2.006782 0.000000 0.000000
vt 0.000000 0.800000 0.000000
vt 2.006782 0.800000 0.000000
vt -0.000000 0.000000 0.000000
vt 2.452801 0.000000 0.000000
vt -0.000000 0.800000 0.000000
vt 2.452801 0.800000 0.000000
vt -3.855063 0.903391 0.000000
vt -3.955063 -1.003391 0.000000
vt -3.855063 -0.903391 0.000000
vt -1.502262 -1.003391 0.000000
vt -1.516663 -0.903391 0.000000
vt -0.230251 -0.629270 0.000000
vt -0.244652 -0.529270 0.000000
vt 1.104211 -0.629270 0.000000
vt 1.134250 -0.529270 0.000000
vt 1.700776 -0.903391 0.000000
vt 1.670737 -1.003391 0.000000
vt 2.413153 -1.003391 0.000000
vt -1.516663 0.903391 0.000000
vt -1.502262 1.003391 0.000000
vt -3.955063 1.003391 0.000000
vt -0.230251 0.629270 0.000000
vt -0.244652 0.529270 0.000000
vt 1.104211 0.629270 0.000000
vt 1.134250 0.529270 0.000000
vt 1.700776 0.903391 0.000000
vt 2.513153 0.903391 0.000000
vt 2.413153 1.003391 0.000000
vt 1.670737 1.003391 0.000000
vt 2.513153 2.182444 0.000000
vt 2.413153 2.282444 0.000000
vt 3.855063 2.182444 0.000000
vt 3.955063 2.282444 0.000000
vt 3.955063 -2.282444 0.000000
vt 3.855063 -2.182444 0.000000
vt 2.513153 -2.182444 0.000000
vt 2.513153 -0.903391 0.000000
vt 2.413153 -2.282444 0.000000
vt 3.855063 -0.903391 0.000000
vt 3.955063 -1.003391 0.000000
vt 3.855063 0.903391 0.000000
vt 3.955063 1.003391 0.000000
vt 1.502262 1.003391 0.000000
vt 1.502262 -1.003391 0.000000
vt 1.516663 -0.903391 0.000000
vt 0.230251 -0.629270 0.000000
vt 0.244652 -0.529270 0.000000
vt -1.104211 -0.629270 0.000000
vt -1.134250 -0.529270 0.000000
vt -1.700776 -0.903391 0.000000
vt -2.513153 -0.903391 0.000000
vt -2.413153 -1.003391 0.000000
vt -1.670737 -1.003391 0.000000
vt -2.513153 -2.182444 0.000000
vt -2.413153 -2.282444 0.000000
vt -3.855063 -2.182444 0.000000
vt -3.955063 -2.282444 0.000000
vt -3.855063 2.182444 0.000000
vt -3.955063 2.282444 0.000000
vt -2.513153 2.182444 0.000000
vt -2.413153 2.282444 0.000000
vt -2.413153 1.003391 0.000000
vt -2.513153 0.903391 0.000000
vt -1.700776 0.903391 0.000000
vt -1.134250 0.529270 0.000000
vt -1.104211 0.629270 0.000000
vt -1.670737 1.003391 0.000000
vt 0.244652 0.529270 0.000000
vt 0.230251 0.629270 0.000000
vt 1.516663 0.903391 0.000000
vn 0.000000 1.000000 0.000000
vn 0.000000 1.000000 0.000000
vn 0.000000 1.000000 0.000000
vn 0.000000 1.000000 0.000000
vn -0.282166 0.959366 0.000000
vn -0.282166 0.959366 0.000000
vn -0.282166 0.959366 0.000000
vn -0.282166 0.959366 0.000000
vn 0.000000 1.000000 0.000000
vn 0.000000 1.000000 0.000000
vn 0.000000 1.000000 0.000000
vn 0.000000 1.000000 0.000000
vn 0.551062 0.834465 0.000000
vn 0.551062 0.834465 0.000000
vn 0.551062 0.834465 0.000000
vn 0.551062 0.834465 0.000000
vn 0.000000 1.000000 0.000000
vn 0.000000 1.000000 0.000000
vn 0.000000 1.000000 0.000000
vn 0.000000 1.000000 0.000000
vn 1.000000 -0.000000 0.000000
vn 1.000000 -0.000000 0.000000
vn 1.000000 -0.000000 0.000000
vn 1.000000 -0.000000 0.000000
vn 0.000000 1.000000 0.000000
vn 0.000000 1.000000 0.000000
vn 0.000000 1.000000 0.000000
vn 0.000000 1.000000 0.000000
vn -1.000000 0.000000 0.000000
vn -1.000000 0.000000 0.000000
vn -1.000000 0.000000 0.000000
vn -1.000000 0.000000 0.000000
vn 0.000000 -1.000000 0.000000
vn 0.000000 -1.000000 0.000000
vn 0.000000 -1.000000 0.000000
vn 0.000000 -1.000000 0.000000
vn 1.000000 0.000000 0.000000
vn 1.000000 0.000000 0.000000
vn 1.000000 0.000000 0.000000
vn 1.000000 0.000000 0.000000
vn 0.000000 -1.000000 0.000000
vn 0.000000 -1.000000 0.000000
vn 0.000000 -1.000000 0.000000
vn 0.000000 -1.000000 0.000000
vn 0.551062 -0.834465 0.000000
vn 0.551062 -0.834465 0.000000
vn 0.551062 -0.834465 0.000000
vn 0.551062 -0.834465 0.000000
vn 0.000000 -1.000000 0.000000
vn 0.000000 -1.000000 0.000000
vn 0.000000 -1.000000 0.000000
vn 0.000000 -1.000000 0.000000
vn -0.282166 -0.959366 0.000000
vn -0.282166 -0.959366 0.000000
vn -0.282166 -0.959366 0.000000
vn -0.282166 -0.959366 0.000000
vn 0.000000 -1.000000 0.000000
vn 0.000000 -1.000000 0.000000
vn 0.000000 -1.000000 0.000000
vn 0.000000 -1.000000 0.000000
vn 1.000000 0.000000 0.000000
vn 1.000000 0.000000 0.000000
vn 1.000000 0.000000 0.000000
vn 1.000000 0.000000 0.000000
vn 0.282166 0.959366 0.000000
vn 0.282166 0.959366 0.000000
vn 0.282166 0.959366 0.000000
vn 0.282166 0.959366 0.000000
vn -0.000000 1.000000 0.000000
vn -0.000000 1.000000 0.000000
vn -0.000000 1.000000 0.000000
vn -0.000000 1.000000 0.000000
vn -0.551062 0.834465 0.000000
vn -0.551062 0.834465 0.000000
vn -0.551062 0.834465 0.000000
vn -0.551062 0.834465 0.000000
vn -0.000000 1.000000 0.000000
vn -0.000000 1.000000 0.000000
vn -0.000000 1.000000 0.000000
vn -0.000000 1.000000 0.000000
vn -1.000000 -0.000000 0.000000
vn -1.000000 -0.000000 0.000000
vn -1.000000 -0.000000 0.000000
vn -1.000000 -0.000000 0.000000
vn -0.000000 1.000000 0.000000
vn -0.000000 1.000000 0.000000
vn -0.000000 1.000000 0.000000
vn -0.000000 1.000000 0.000000
vn 1.000000 0.000000 0.000000
vn 1.000000 0.000000 0.000000
vn 1.000000 0.000000 0.000000
vn 1.000000 0.000000 0.000000
vn -0.000000 -1.000000 0.000000
vn -0.000000 -1.000000 0.000000
vn -0.000000 -1.000000 0.000000
vn -0.000000 -1.000000 0.000000
vn -1.000000 0.000000 0.000000
vn -1.000000 0.000000 0.000000
vn -1.000000 0.000000 0.000000
vn -1.000000 0.000000 0.000000
vn -0.000000 -1.000000 0.000000
vn -0.000000 -1.000000 0.000000
vn -0.000000 -1.000000 0.000000
vn -0.000000 -1.000000 0.000000
vn -0.551062 -0.834465 0.000000
vn -0.551062 -0.834465 0.000000
vn -0.551062 -0.834465 0.000000
vn -0.551062 -0.834465 0.000000
vn -0.000000 -1.000000 0.000000
vn -0.000000 -1.000000 0.000000
vn -0.000000 -1.000000 0.000000
vn -0.000000 -1.000000 0.000000
vn 0.282166 -0.959366 0.000000
vn 0.282166 -0.959366 0.000000
vn 0.282166 -0.959366 0.000000
vn 0.282166 -0.959366 0.000000
vn 0.000000 -1.000000 0.000000
vn 0.000000 -1.000000 0.000000
vn 0.000000 -1.000000 0.000000
vn 0.000000 -1.000000 0.000000
vn -1.000000 0.000000 0.000000
vn -1.000000 0.000000 0.000000
vn -1.000000 0.000000 0.000000
vn -1.000000 0.000000 0.000000
vn 0.000000 1.000000 0.000000
vn 0.000000 1.000000 0.000000
vn 0.000000 1.000000 0.000000
vn 0.000000 1.000000 0.000000
vn 0.000000 0.000000 1.000000
vn 0.000000 0.000000 1.000000
vn 0.000000 0.000000 1.000000
vn 0.000000 0.000000 1.000000
vn 0.000000 0.000000 1.000000
vn 0.000000 0.000000 1.000000
vn 0.000000 0.000000 1.000000
vn 0.000000 0.000000 1.000000
vn 0.000000 0.000000 1.000000
vn 0.000000 0.000000 1.000000
vn 0.000000 0.000000 1.000000
vn 0.000000 0.000000 1.000000
vn 0.000000 0.000000 1.000000
vn 0.000000 0.000000 1.000000
vn 0.000000 0.000000 1.000000
vn 0.000000 0.000000 1.000000
vn 0.000000 0.000000 1.000000
vn 0.000000 0.000000 1.000000
vn 0.000000 0.000000 1.000000
vn 0.000000 0.000000 1.000000
vn 0.000000 0.000000 1.000000
vn 0.000000 0.000000 1.000000
vn 0.000000 0.000000 1.000000
vn 0.000000 0.000000 1.000000
vn 0.000000 0.000000 1.000000
vn 0.000000 0.000000 1.000000
vn 0.000000 0.000000 1.000000
vn 0.000000 0.000000 1.000000
vn 0.000000 0.000000 1.000000
vn 0.000000 0.000000 1.000000
vn 0.000000 0.000000 1.000000
vn 0.000000 0.000000 1.000000
vn -0.000000 -0.000000 -1.000000
vn -0.000000 -0.000000 -1.000000
vn -0.000000 -0.000000 -1.000000
vn -0.000000 -0.000000 -1.000000
vn -0.000000 -0.000000 -1.000000
vn -0.000000 -0.000000 -1.000000
vn -0.000000 -0.000000 -1.000000
vn -0.000000 -0.000000 -1.000000
vn -0.000000 -0.000000 -1.000000
vn -0.000000 -0.000000 -1.000000
vn -0.000000 -0.000000 -1.000000
vn -0.000000 -0.000000 -1.000000
vn -0.000000 -0.000000 -1.000000
vn -0.000000 -0.000000 -1.000000
vn -0.000000 -0.000000 -1.000000
vn -0.000000 -0.000000 -1.000000
vn -0.000000 -0.000000 -1.000000
vn -0.000000 -0.000000 -1.000000
vn -0.000000 -0.000000 -1.000000
vn -0.000000 -0.000000 -1.000000
vn -0.000000 -0.000000 -1.000000
vn -0.000000 -0.000000 -1.000000
vn -0.000000 -0.000000 -1.000000
vn -0.000000 -0.000000 -1.000000
vn -0.000000 -0.000000 -1.000000
vn -0.000000 -0.000000 -1.000000
vn -0.000000 -0.000000 -1.000000
vn -0.000000 -0.000000 -1.000000
vn -0.000000 -0.000000 -1.000000
vn -0.000000 -0.000000 -1.000000
vn -0.000000 -0.000000 -1.000000
vn -0.000000 -0.000000 -1.000000
usemtl Steel_-_Satin
f 1/1/1 2/2/2 4/3/3
f 4/3/3 2/2/2 3/4/4
f 5/5/5 1/6/6 6/7/7
f 6/7/7 1/6/6 4/8/8
f 7/9/9 5/10/10 8/11/11
f 8/11/11 5/10/10 6/12/12
f 9/13/13 7/14/14 10/15/15
f 10/15/15 7/14/14 8/16/16
f 11/17/17 9/18/18 12/19/19
f 12/19/19 9/18/18 10/20/20
f 13/21/21 11/22/22 14/23/23
f 14/23/23 11/22/22 12/24/24
f 15/25/25 13/26/26 16/27/27
f 16/27/27 13/26/26 14/28/28
f 17/29/29 15/30/30 18/31/31
f 18/31/31 15/30/30 16/32/32
f 19/33/33 17/34/34 20/35/35
f 20/35/35 17/34/34 18/36/36
f 21/37/37 19/38/38 22/39/39
f 22/39/39 19/38/38 20/40/40
f 23/41/41 21/42/42 24/43/43
f 24/43/43 21/42/42 22/44/44
f 25/45/45 23/46/46 26/47/47
f 26/47/47 23/46/46 24/48/48
f 27/49/49 25/50/50 28/51/51
f 28/51/51 25/50/50 26/52/52
f 29/53/53 27/54/54 30/55/55
f 30/55/55 27/54/54 28/56/56
f 31/57/57 29/58/58 32/59/59
f 32/59/59 29/58/58 30/60/60
f 2/61/61 31/62/62 3/63/63
f 3/63/63 31/62/62 32/64/64
f 33/65/65 34/66/66 36/67/67
f 36/67/67 34/66/66 35/68/68
f 37/69/69 33/70/70 38/71/71
f 38/71/71 33/70/70 36/72/72
f 39/73/73 37/74/74 40/75/75
f 40/75/75 37/74/74 38/76/76
f 41/77/77 39/78/78 42/79/79
f 42/79/79 39/78/78 40/80/80
f 43/81/81 41/82/82 44/83/83
f 44/83/83 41/82/82 42/84/84
f 45/85/85 43/86/86 46/87/87
f 46/87/87 43/86/86 44/88/88
f 47/89/89 45/90/90 48/91/91
f 48/91/91 45/90/90 46/92/92
f 49/93/93 47/94/94 50/95/95
f 50/95/95 47/94/94 48/96/96
f 51/97/97 49/98/98 52/99/99
f 52/99/99 49/98/98 50/100/100
f 53/101/101 51/102/102 54/103/103
f 54/103/103 51/102/102 52/104/104
f 55/105/105 53/106/106 56/107/107
f 56/107/107 53/106/106 54/108/108
f 57/109/109 55/110/110 58/111/111
f 58/111/111 55/110/110 56/112/112
f 59/113/113 57/114/114 60/115/115
f 60/115/115 57/114/114 58/116/116
f 61/117/117 59/118/118 62/119/119
f 62/119/119 59/118/118 60/120/120
f 63/121/121 61/122/122 64/123/123
f 64/123/123 61/122/122 62/124/124
f 34/125/125 63/126/126 35/127/127
f 35/127/127 63/126/126 64/128/128
f 32/129/129 62/130/130 3/131/131
f 3/131/131 62/130/130 60/132/132
f 3/131/131 60/132/132 4/133/133
f 4/133/133 60/132/132 58/134/134
f 4/133/133 58/134/134 6/135/135
f 6/135/135 58/134/134 56/136/136
f 6/135/135 56/136/136 8/137/137
f 8/137/137 56/136/136 10/138/138
f 10/138/138 56/136/136 54/139/139
f 10/138/138 54/139/139 52/140/140
f 30/141/141 35/142/142 32/129/129
f 32/129/129 35/142/142 64/143/143
f 32/129/129 64/143/143 62/130/130
f 35/142/142 30/141/141 36/144/144
f 36/144/144 30/141/141 28/145/145
f 36/144/144 28/145/145 38/146/146
f 38/146/146 28/145/145 26/147/147
f 38/146/146 26/147/147 24/148/148
f 22/149/149 42/150/150 24/148/148
f 24/148/148 42/150/150 40/151/151
f 24/148/148 40/151/151 38/146/146
f 22/149/149 20/152/152 42/150/150
f 42/150/150 20/152/152 44/153/153
f 44/153/153 20/152/152 18/154/154
f 44/153/153 18/154/154 46/155/155
f 46/155/155 18/154/154 48/156/156
f 48/156/156 18/154/154 16/157/157
f 48/156/156 16/157/157 14/158/158
f 12/159/159 52/140/140 14/158/158
f 14/158/158 52/140/140 50/160/160
f 14/158/158 50/160/160 48/156/156
f 12/159/159 10/138/138 52/140/140
f 2/161/161 61/162/162 31/163/163
f 31/163/163 61/162/162 63/164/164
f 31/163/163 63/164/164 34/165/165
f 61/162/162 2/161/161 59/166/166
f 59/166/166 2/161/161 1/167/167
f 59/166/166 1/167/167 57/168/168
f 57/168/168 1/167/167 5/169/169
f 57/168/168 5/169/169 55/170/170
f 55/170/170 5/169/169 7/171/171
f 55/170/170 7/171/171 9/172/172
f 11/173/173 51/174/174 9/172/172
f 9/172/172 51/174/174 53/175/175
f 9/172/172 53/175/175 55/170/170
f 11/173/173 13/176/176 51/174/174
f 51/174/174 13/176/176 49/177/177
f 49/177/177 13/176/176 15/178/178
f 49/177/177 15/178/178 47/179/179
f 47/179/179 15/178/178 17/180/180
f 47/179/179 17/180/180 45/181/181
f 45/181/181 17/180/180 19/182/182
f 45/181/181 19/182/182 43/183/183
f 43/183/183 19/182/182 41/184/184
f 41/184/184 19/182/182 21/185/185
f 41/184/184 21/185/185 23/186/186
f 25/187/187 37/188/188 23/186/186
f 23/186/186 37/188/188 39/189/189
f 23/186/186 39/189/189 41/184/184
f 25/187/187 27/190/190 37/188/188
f 37/188/188 27/190/190 33/191/191
f 33/191/191 27/190/190 29/192/192
f 33/191/191 29/192/192 34/165/165
f 34/165/165 29/192/192 31/163/163
# 64 vertices
# 192 texture params
# 192 normals
# 128 facets

# 1 groups
